<?xml version="1.0" encoding="UTF-8" standalone="no" ?>
<!DOCTYPE svg PUBLIC "-//W3C//DTD SVG 1.1//EN" "http://www.w3.org/Graphics/SVG/1.1/DTD/svg11.dtd">
<svg xmlns="http://www.w3.org/2000/svg" xmlns:xlink="http://www.w3.org/1999/xlink" version="1.1" width="128" height="128" viewBox="0 0 128 128" xml:space="preserve">
<desc>Created with Fabric.js 4.6.0</desc>
<defs>
</defs>
<g transform="matrix(0.41 0.17 -0.17 0.41 53.93 20.38)" id="zkEkx2stB_JkQCn4VPrGv"  >
<path style="stroke: rgb(98,117,224); stroke-width: 5; stroke-dasharray: none; stroke-linecap: butt; stroke-dashoffset: 0; stroke-linejoin: miter; stroke-miterlimit: 4; fill: rgb(104,162,230); fill-rule: nonzero; opacity: 1;" vector-effect="non-scaling-stroke"  transform=" translate(0, 0)" d="M -23.00266 -19.35556 C -23.00266 -21.3698 -21.369799999999998 -23.00266 -19.355559999999997 -23.00266 L 19.35555 -23.00266 L 19.35555 -23.00266 C 21.369790000000002 -23.00266 23.002650000000003 -21.369799999999998 23.002650000000003 -19.355559999999997 L 23.002650000000003 19.35555 L 23.002650000000003 19.35555 C 23.002650000000003 21.369790000000002 21.369790000000002 23.002650000000003 19.35555 23.002650000000003 L -19.355559999999997 23.002650000000003 L -19.355559999999997 23.002650000000003 C -21.369799999999998 23.002650000000003 -23.00266 21.369790000000002 -23.00266 19.35555 z" stroke-linecap="round" />
</g>
<g transform="matrix(-0.41 0.18 0.18 0.41 74.79 20.29)" id="rw--SeC8-TMlcOMHJsDnf"  >
<path style="stroke: rgb(98,117,224); stroke-width: 5; stroke-dasharray: none; stroke-linecap: butt; stroke-dashoffset: 0; stroke-linejoin: miter; stroke-miterlimit: 4; fill: rgb(104,162,230); fill-rule: nonzero; opacity: 1;" vector-effect="non-scaling-stroke"  transform=" translate(0, 0)" d="M -23.00266 -19.35556 C -23.00266 -21.3698 -21.369799999999998 -23.00266 -19.355559999999997 -23.00266 L 19.35555 -23.00266 L 19.35555 -23.00266 C 21.369790000000002 -23.00266 23.002650000000003 -21.369799999999998 23.002650000000003 -19.355559999999997 L 23.002650000000003 19.35555 L 23.002650000000003 19.35555 C 23.002650000000003 21.369790000000002 21.369790000000002 23.002650000000003 19.35555 23.002650000000003 L -19.355559999999997 23.002650000000003 L -19.355559999999997 23.002650000000003 C -21.369799999999998 23.002650000000003 -23.00266 21.369790000000002 -23.00266 19.35555 z" stroke-linecap="round" />
</g>
<g transform="matrix(2.08 0 0 2.08 64 77.68)" id="KBAwS_gorhZH6u29_OvRB"  >
<path style="stroke: rgb(98,117,224); stroke-width: 5; stroke-dasharray: none; stroke-linecap: butt; stroke-dashoffset: 0; stroke-linejoin: miter; stroke-miterlimit: 4; fill: rgb(104,162,230); fill-rule: nonzero; opacity: 1;" vector-effect="non-scaling-stroke"  transform=" translate(0, 0)" d="M -23.00266 -19.34741 C -23.00266 -21.36615 -21.366149999999998 -23.00266 -19.34741 -23.00266 L 19.34741 -23.00266 L 19.34741 -23.00266 C 21.36615 -23.00266 23.00266 -21.366149999999998 23.00266 -19.34741 L 23.00266 -6.7379999999999995 L 23.00266 19.34741 L 23.00266 19.34741 C 23.00266 21.36615 21.366149999999998 23.00266 19.34741 23.00266 L -19.34741 23.00266 L -19.34741 23.00266 C -21.36615 23.00266 -23.00266 21.366149999999998 -23.00266 19.34741 z" stroke-linecap="round" />
</g>
<g transform="matrix(0.6 0 0 1.38 64 12.71)" id="kpr9-NpJ-kNK1WwWH65Hs"  >
<path style="stroke: rgb(87,185,42); stroke-width: 0; stroke-dasharray: none; stroke-linecap: butt; stroke-dashoffset: 0; stroke-linejoin: miter; stroke-miterlimit: 4; fill: rgb(85,85,85); fill-rule: nonzero; opacity: 1;" vector-effect="non-scaling-stroke"  transform=" translate(0, 0)" d="M -9.16711 -6.34211 C -9.16711 -7.90231 -6.24142 -9.167110000000001 -2.632389999999999 -9.167110000000001 L 2.632390000000001 -9.167110000000001 L 2.632390000000001 -9.167110000000001 C 6.2414200000000015 -9.167110000000001 9.167110000000001 -7.902310000000001 9.167110000000001 -6.342110000000001 L 9.167110000000001 6.342109999999999 L 9.167110000000001 6.342109999999999 C 9.167110000000001 7.902309999999999 6.2414200000000015 9.16711 2.632390000000001 9.16711 L -2.632389999999999 9.16711 L -2.632389999999999 9.16711 C -6.24142 9.16711 -9.16711 7.902309999999999 -9.16711 6.342109999999999 z" stroke-linecap="round" />
</g>
<g transform="matrix(1 0 0 1 64 58.5)" id="r5StaGOttu5OpRqqFBUIl"  >
<path style="stroke: rgb(87,185,42); stroke-width: 0; stroke-dasharray: none; stroke-linecap: butt; stroke-dashoffset: 0; stroke-linejoin: miter; stroke-miterlimit: 4; fill: rgb(255,255,255); fill-rule: nonzero; opacity: 1;" vector-effect="non-scaling-stroke"  transform=" translate(-24.36, -24.36)" d="M 24.36074 0 C 37.80787 0 48.72148 10.91361 48.72148 24.36074 C 48.72148 37.80787 37.80787 48.72148 24.36074 48.72148 C 10.91361 48.72148 0 37.80787 0 24.36074 C 0 10.91361 10.91361 0 24.36074 0 z" stroke-linecap="round" />
</g>
<g transform="matrix(0.61 0 0 0.61 64 50.5)" id="r06jJ16I6RhFJ1AfO5JdF"  >
<path style="stroke: rgb(87,185,42); stroke-width: 0; stroke-dasharray: none; stroke-linecap: butt; stroke-dashoffset: 0; stroke-linejoin: miter; stroke-miterlimit: 4; fill: rgb(0,0,0); fill-rule: nonzero; opacity: 1;" vector-effect="non-scaling-stroke"  transform=" translate(0, 0)" d="M 0 -24.36074 C 13.44713 -24.36074 24.36074 -13.44713 24.36074 0 C 24.36074 13.44713 13.44713 24.36074 0 24.36074 C -13.44713 24.36074 -24.36074 13.44713 -24.36074 0 C -24.36074 -13.44713 -13.44713 -24.36074 0 -24.36074 z" stroke-linecap="round" />
</g>
</svg>