<?xml version="1.0" encoding="UTF-8" standalone="no" ?>
<!DOCTYPE svg PUBLIC "-//W3C//DTD SVG 1.1//EN" "http://www.w3.org/Graphics/SVG/1.1/DTD/svg11.dtd">
<svg xmlns="http://www.w3.org/2000/svg" xmlns:xlink="http://www.w3.org/1999/xlink" version="1.1" width="128" height="128" viewBox="0 0 128 128" xml:space="preserve">
<desc>Created with Fabric.js 4.6.0</desc>
<defs>
</defs>
<g transform="matrix(0.41 0.17 -0.17 0.41 107.56 23.61)" id="zkEkx2stB_JkQCn4VPrGv"  >
<path style="stroke: rgb(222,84,84); stroke-width: 5; stroke-dasharray: none; stroke-linecap: butt; stroke-dashoffset: 0; stroke-linejoin: miter; stroke-miterlimit: 4; fill: rgb(230,104,104); fill-rule: nonzero; opacity: 1;" vector-effect="non-scaling-stroke"  transform=" translate(0, 0)" d="M -23.00266 -19.35556 C -23.00266 -21.3698 -21.369799999999998 -23.00266 -19.355559999999997 -23.00266 L 19.35555 -23.00266 L 19.35555 -23.00266 C 21.369790000000002 -23.00266 23.002650000000003 -21.369799999999998 23.002650000000003 -19.355559999999997 L 23.002650000000003 19.35555 L 23.002650000000003 19.35555 C 23.002650000000003 21.369790000000002 21.369790000000002 23.002650000000003 19.35555 23.002650000000003 L -19.355559999999997 23.002650000000003 L -19.355559999999997 23.002650000000003 C -21.369799999999998 23.002650000000003 -23.00266 21.369790000000002 -23.00266 19.35555 z" stroke-linecap="round" />
</g>
<g transform="matrix(-0.41 0.18 0.18 0.41 20.83 23.52)" id="rw--SeC8-TMlcOMHJsDnf"  >
<path style="stroke: rgb(222,84,84); stroke-width: 5; stroke-dasharray: none; stroke-linecap: butt; stroke-dashoffset: 0; stroke-linejoin: miter; stroke-miterlimit: 4; fill: rgb(230,104,104); fill-rule: nonzero; opacity: 1;" vector-effect="non-scaling-stroke"  transform=" translate(0, 0)" d="M -23.00266 -19.35556 C -23.00266 -21.3698 -21.369799999999998 -23.00266 -19.355559999999997 -23.00266 L 19.35555 -23.00266 L 19.35555 -23.00266 C 21.369790000000002 -23.00266 23.002650000000003 -21.369799999999998 23.002650000000003 -19.355559999999997 L 23.002650000000003 19.35555 L 23.002650000000003 19.35555 C 23.002650000000003 21.369790000000002 21.369790000000002 23.002650000000003 19.35555 23.002650000000003 L -19.355559999999997 23.002650000000003 L -19.355559999999997 23.002650000000003 C -21.369799999999998 23.002650000000003 -23.00266 21.369790000000002 -23.00266 19.35555 z" stroke-linecap="round" />
</g>
<g transform="matrix(2.08 0 0 2.08 64 77.68)" id="KBAwS_gorhZH6u29_OvRB"  >
<path style="stroke: rgb(222,84,84); stroke-width: 5; stroke-dasharray: none; stroke-linecap: butt; stroke-dashoffset: 0; stroke-linejoin: miter; stroke-miterlimit: 4; fill: rgb(230,104,104); fill-rule: nonzero; opacity: 1;" vector-effect="non-scaling-stroke"  transform=" translate(0, 0)" d="M -23.00266 -19.34741 C -23.00266 -21.36615 -21.366149999999998 -23.00266 -19.34741 -23.00266 L 19.34741 -23.00266 L 19.34741 -23.00266 C 21.36615 -23.00266 23.00266 -21.366149999999998 23.00266 -19.34741 L 23.00266 -6.7379999999999995 L 23.00266 19.34741 L 23.00266 19.34741 C 23.00266 21.36615 21.366149999999998 23.00266 19.34741 23.00266 L -19.34741 23.00266 L -19.34741 23.00266 C -21.36615 23.00266 -23.00266 21.366149999999998 -23.00266 19.34741 z" stroke-linecap="round" />
</g>
<g transform="matrix(1 0 0 1 64 58.5)" id="r5StaGOttu5OpRqqFBUIl"  >
<path style="stroke: rgb(87,185,42); stroke-width: 0; stroke-dasharray: none; stroke-linecap: butt; stroke-dashoffset: 0; stroke-linejoin: miter; stroke-miterlimit: 4; fill: rgb(255,255,255); fill-rule: nonzero; opacity: 1;" vector-effect="non-scaling-stroke"  transform=" translate(-24.36, -24.36)" d="M 24.36074 0 C 37.80787 0 48.72148 10.91361 48.72148 24.36074 C 48.72148 37.80787 37.80787 48.72148 24.36074 48.72148 C 10.91361 48.72148 0 37.80787 0 24.36074 C 0 10.91361 10.91361 0 24.36074 0 z" stroke-linecap="round" />
</g>
<g transform="matrix(0.61 0 0 0.61 64 50.5)" id="r06jJ16I6RhFJ1AfO5JdF"  >
<path style="stroke: rgb(87,185,42); stroke-width: 0; stroke-dasharray: none; stroke-linecap: butt; stroke-dashoffset: 0; stroke-linejoin: miter; stroke-miterlimit: 4; fill: rgb(0,0,0); fill-rule: nonzero; opacity: 1;" vector-effect="non-scaling-stroke"  transform=" translate(0, 0)" d="M 0 -24.36074 C 13.44713 -24.36074 24.36074 -13.44713 24.36074 0 C 24.36074 13.44713 13.44713 24.36074 0 24.36074 C -13.44713 24.36074 -24.36074 13.44713 -24.36074 0 C -24.36074 -13.44713 -13.44713 -24.36074 0 -24.36074 z" stroke-linecap="round" />
</g>
<g transform="matrix(0.89 0 0 0.3 64 68.48)" id="opF25dg6zXHNq6PtM_-jR"  >
<path style="stroke: rgb(222,84,84); stroke-width: 5; stroke-dasharray: none; stroke-linecap: butt; stroke-dashoffset: 0; stroke-linejoin: miter; stroke-miterlimit: 4; fill: rgb(179,181,179); fill-rule: nonzero; opacity: 1;" vector-effect="non-scaling-stroke"  transform=" translate(-40, -40)" d="M 60 40 L 80 80 L 40 80 L 0 80 L 20 40 L 40 0 L 60 40 z" stroke-linecap="round" />
</g>
<g transform="matrix(0.89 0 0 0.3 64 70.86)" id="5vtLQQSZIXi3D-dymBZf_"  >
<path style="stroke: rgb(222,84,84); stroke-width: 0; stroke-dasharray: none; stroke-linecap: butt; stroke-dashoffset: 0; stroke-linejoin: miter; stroke-miterlimit: 4; fill: rgb(230,104,104); fill-rule: nonzero; opacity: 1;" vector-effect="non-scaling-stroke"  transform=" translate(-40, -40)" d="M 60 40 L 80 80 L 40 80 L 0 80 L 20 40 L 40 0 L 60 40 z" stroke-linecap="round" />
</g>
</svg>