<?xml version="1.0" encoding="UTF-8" standalone="no" ?>
<!DOCTYPE svg PUBLIC "-//W3C//DTD SVG 1.1//EN" "http://www.w3.org/Graphics/SVG/1.1/DTD/svg11.dtd">
<svg xmlns="http://www.w3.org/2000/svg" xmlns:xlink="http://www.w3.org/1999/xlink" version="1.1" width="128" height="128" viewBox="0 0 128 128" xml:space="preserve">
<desc>Created with Fabric.js 4.6.0</desc>
<defs>
</defs>
<g transform="matrix(1.67 0 0 1.67 64 64)" id="sf-T-otfjnFwOGgMB4kZ9"  >
<path style="stroke: rgb(223,189,97); stroke-width: 0; stroke-dasharray: none; stroke-linecap: butt; stroke-dashoffset: 0; stroke-linejoin: miter; stroke-miterlimit: 4; fill: rgb(247,47,58); fill-rule: nonzero; opacity: 1;" vector-effect="non-scaling-stroke"  transform=" translate(0, 0)" d="M 0 -38.19629 C 21.08435 -38.19629 38.19629 -21.084349999999997 38.19629 0 C 38.19629 21.08435 21.084349999999997 38.19629 0 38.19629 C -21.08435 38.19629 -38.19629 21.084349999999997 -38.19629 0 C -38.19629 -21.08435 -21.084349999999997 -38.19629 0 -38.19629 z" stroke-linecap="round" />
</g>
<g transform="matrix(2.51 0 0 2.51 64 64)" id="DmTTL58FzKWv7F2wM8KU1"  >
<path style="stroke: rgb(240,143,139); stroke-width: 0; stroke-dasharray: none; stroke-linecap: butt; stroke-dashoffset: 0; stroke-linejoin: miter; stroke-miterlimit: 4; fill: rgb(255,255,255); fill-rule: nonzero; opacity: 1;" vector-effect="non-scaling-stroke"  transform=" translate(0, 0)" d="M 0 -17.57029 C 9.6988 -17.57029 17.57029 -9.6988 17.57029 0 C 17.57029 9.6988 9.6988 17.57029 0 17.57029 C -9.6988 17.57029 -17.57029 9.6988 -17.57029 0 C -17.57029 -9.6988 -9.6988 -17.57029 0 -17.57029 z" stroke-linecap="round" />
</g>
<g transform="matrix(1.21 0 0 1.21 64 64)" id="0yg7ElVRHCS4Acmf-LGqA"  >
<path style="stroke: rgb(122,194,4); stroke-width: 0; stroke-dasharray: none; stroke-linecap: butt; stroke-dashoffset: 0; stroke-linejoin: miter; stroke-miterlimit: 4; fill: rgb(247,47,58); fill-rule: nonzero; opacity: 1;" vector-effect="non-scaling-stroke"  transform=" translate(0, 0)" d="M 0 -16.46685 C 9.0897 -16.46685 16.46685 -9.0897 16.46685 0 C 16.46685 9.0897 9.0897 16.46685 0 16.46685 C -9.0897 16.46685 -16.46685 9.0897 -16.46685 0 C -16.46685 -9.0897 -9.0897 -16.46685 0 -16.46685 z" stroke-linecap="round" />
</g>
</svg>